<?xml version="1.0" encoding="UTF-8"?>
<svg id="Layer_1" data-name="Layer 1" xmlns="http://www.w3.org/2000/svg" viewBox="0 0 958.78 544.06">
  <defs>
    <style>
      .cls-1 {
        fill: #ffffe3;
      }
    </style>
  </defs>
  <g>
    <path class="cls-1" d="M0,42.61h21.31v149.14H0V42.61ZM21.31,21.31h21.31v21.31h-21.31v-21.31ZM21.31,191.76h21.31v21.31h-21.31v-21.31ZM42.61,0h149.14v21.31h21.31v21.31h21.31v149.14h-21.31v21.31h-21.31v21.31h-106.53v-21.31h-21.31v-21.31h-21.31V42.61h21.31v-21.31h-21.31V0ZM42.61,213.06h21.31v21.31h-21.31v-21.31ZM106.53,63.92v106.53h63.92V63.92h-63.92Z"/>
    <path class="cls-1" d="M255.68,0h170.45v63.92h-63.92v21.31h42.61v63.92h-42.61v85.23h-63.92V21.31h-21.31v213.06h-21.31V0Z"/>
    <path class="cls-1" d="M447.43,0h170.45v63.92h-63.92v21.31h42.61v63.92h-42.61v85.23h-63.92V21.31h-21.31v213.06h-21.31V0Z"/>
    <path class="cls-1" d="M639.19,0h85.23v106.53h21.31v21.31h-21.31v21.31h21.31v-21.31h21.31v-21.31h21.31v-21.31h21.31v-21.31h21.31v21.31h21.31v21.31h21.31v21.31h21.31V21.31h-21.31v63.92h-21.31V0h106.53v234.37h-63.92v-21.31h-21.31v-21.31h-21.31v-21.31h-21.31v-21.31h-21.31v21.31h-21.31v21.31h-21.31v21.31h-21.31v21.31h-63.92V21.31h-21.31v213.06h-21.31V0ZM745.72,85.23h21.31v21.31h-21.31v-21.31ZM767.03,63.92h21.31v21.31h-21.31v-21.31ZM788.33,42.61h21.31v21.31h-21.31v-21.31ZM809.64,170.45h21.31v21.31h-21.31v-21.31ZM830.95,191.76h21.31v21.31h-21.31v-21.31ZM852.25,213.06h21.31v21.31h-21.31v-21.31Z"/>
  </g>
  <path class="cls-1" d="M0,352.31h21.31v149.14H0v-149.14ZM21.31,331h21.31v21.31h-21.31v-21.31ZM21.31,501.45h21.31v21.31h-21.31v-21.31ZM42.61,309.69h149.14v21.31h21.31v21.31h21.31v149.14h-21.31v21.31h-21.31v21.31h-106.53v-21.31h-21.31v-21.31h-21.31v-149.14h21.31v-21.31h-21.31v-21.31ZM42.61,522.76h21.31v21.31h-21.31v-21.31ZM106.53,373.61v106.53h63.92v-106.53h-63.92Z"/>
  <path class="cls-1" d="M269.88,309.69h213.06v85.23h-21.31v42.61h21.31v106.53h-63.92v-106.53h-42.61v106.53h-63.92v-213.06h-21.31v213.06h-21.31v-234.37ZM376.41,352.31v42.61h42.61v-42.61h-42.61Z"/>
  <path class="cls-1" d="M518.45,309.69h106.53v170.45h42.61v63.92h-106.53v-213.06h-21.31v213.06h-21.31v-234.37Z"/>
  <path class="cls-1" d="M703.11,309.69h213.06v21.31h21.31v21.31h21.31v149.14h-21.31v21.31h-21.31v21.31h-170.45v-213.06h-21.31v213.06h-21.31v-234.37ZM809.64,373.61v106.53h63.92v-106.53h-63.92Z"/>
</svg>