<?xml version="1.0" encoding="UTF-8"?>
<svg id="heading" xmlns="http://www.w3.org/2000/svg" viewBox="0 0 1200 150">
  <defs>
    <style>
      .cls-1 {
        fill: #ffffe3;
      }
    </style>
  </defs>
  <path class="cls-1" d="M0,27.81h13.48v94.38H0V27.81ZM13.48,14.33h13.48v13.48h-13.48v-13.48ZM13.48,122.19h13.48v13.48h-13.48v-13.48ZM26.97.84h94.38v13.48h13.48v13.48h13.48v94.38h-13.48v13.48h-13.48v13.48H53.93v-13.48h-13.48v-13.48h-13.48V27.81h13.48v-13.48h-13.48V.84ZM26.97,135.67h13.48v13.48h-13.48v-13.48ZM67.42,41.29v67.42h40.45V41.29h-40.45Z"/>
  <path class="cls-1" d="M161.8.84h107.86v40.45h-40.45v13.48h26.97v40.45h-26.97v53.93h-40.45V14.33h-13.48v134.83h-13.48V.84Z"/>
  <path class="cls-1" d="M283.15.84h107.87v40.45h-40.45v13.48h26.97v40.45h-26.97v53.93h-40.45V14.33h-13.48v134.83h-13.48V.84Z"/>
  <path class="cls-1" d="M404.49.84h53.93v67.42h13.48v13.48h-13.48v13.48h13.48v-13.48h13.48v-13.48h13.48v-13.48h13.48v-13.48h13.48v13.48h13.48v13.48h13.48v13.48h13.48V14.33h-13.48v40.45h-13.48V.84h67.42v148.31h-40.45v-13.48h-13.48v-13.48h-13.48v-13.48h-13.48v-13.48h-13.48v13.48h-13.48v13.48h-13.48v13.48h-13.48v13.48h-40.45V14.33h-13.48v134.83h-13.48V.84ZM471.91,54.78h13.48v13.48h-13.48v-13.48ZM485.39,41.29h13.48v13.48h-13.48v-13.48ZM498.88,27.81h13.48v13.48h-13.48v-13.48ZM512.36,108.71h13.48v13.48h-13.48v-13.48ZM525.84,122.19h13.48v13.48h-13.48v-13.48ZM539.33,135.67h13.48v13.48h-13.48v-13.48Z"/>
  <path class="cls-1" d="M620.22,27.81h13.48v94.38h-13.48V27.81ZM633.71,14.33h13.48v13.48h-13.48v-13.48ZM633.71,122.19h13.48v13.48h-13.48v-13.48ZM647.19.84h94.38v13.48h13.48v13.48h13.48v94.38h-13.48v13.48h-13.48v13.48h-67.42v-13.48h-13.48v-13.48h-13.48V27.81h13.48v-13.48h-13.48V.84ZM647.19,135.67h13.48v13.48h-13.48v-13.48ZM687.64,41.29v67.42h40.45V41.29h-40.45Z"/>
  <path class="cls-1" d="M782.02.84h134.83v53.93h-13.48v26.97h13.48v67.42h-40.45v-67.42h-26.97v67.42h-40.45V14.33h-13.48v134.83h-13.48V.84ZM849.44,27.81v26.97h26.97v-26.97h-26.97Z"/>
  <path class="cls-1" d="M930.34.84h67.42v107.87h26.97v40.45h-67.42V14.33h-13.48v134.83h-13.48V.84Z"/>
  <path class="cls-1" d="M1038.2.84h134.83v13.48h13.48v13.48h13.48v94.38h-13.48v13.48h-13.48v13.48h-107.87V14.33h-13.48v134.83h-13.48V.84ZM1105.62,41.29v67.42h40.45V41.29h-40.45Z"/>
</svg>